PathFileType	4	(X/Y/Z)	C:\Users\WrightLab\Desktop\Jo\P1.2Trial32.trc
DataRate	CameraRate	NumFrames	NumMarkers	Units	OrigDataRate	OrigDataStartFrame	OrigNumFrames
100.00	100.00	       11	19	mm	100.00	453	       724
Frame#	Time	Headset_Front			Headset_Back			Headset_Left			Headset_Right			Left_Shoulder			Right_Shoulder			Sternum			C7			Left Elbow			Right Elbow			Left Wrist			Right Wrist			Left ASIS			Right ASIS			S2			Left Knee			Right Knee			Left Ankle			Right Ankle			
		X1	Y1	Z1	X2	Y2	Z2	X3	Y3	Z3	X4	Y4	Z4	X5	Y5	Z5	X6	Y6	Z6	X7	Y7	Z7	X8	Y8	Z8	X9	Y9	Z9	X10	Y10	Z10	X11	Y11	Z11	X12	Y12	Z12	X13	Y13	Z13	X14	Y14	Z14	X15	Y15	Z15	X16	Y16	Z16	X17	Y17	Z17	X18	Y18	Z18	X19	Y19	Z19	

453	4.520	71.68766	1384.66406	1039.56921	-29.65632	1526.59912	791.08453	117.50448	1469.65344	852.70514	-64.43538	1418.49377	985.73926	185.85118	1249.80310	708.28906	-169.78683	1253.96155	942.31439	75.51651	1199.83020	929.33337	-56.46398	1309.24939	728.98181	211.24744	960.66077	639.82788	-240.34460	999.83923	958.50354	313.99985	751.60730	703.94586	-209.46085	753.63806	1071.12024	202.13031	890.65643	875.46222	-48.65836	872.06622	994.41925	-59.26215	902.60382	682.65100	228.38478	492.45337	936.48395	-88.66638	429.11655	976.20599	256.75616	130.99483	885.50879	-199.73785	185.06766	744.07648	
454	4.530	74.68198	1384.56030	1050.07520	-23.83673	1529.44751	799.98401	122.98817	1470.60999	863.94830	-60.47575	1418.98206	993.89581	194.24362	1251.99792	720.37592	-165.52199	1256.15381	947.96704	79.29098	1200.97583	938.72791	-48.86514	1311.53943	736.60260	223.97849	963.51874	650.34210	-237.04910	1001.38977	963.06293	325.37698	754.89099	719.62946	-209.94154	755.08722	1074.41650	207.87225	891.60968	883.88098	-45.88828	873.09326	1001.00616	-52.05973	905.33643	687.98328	233.96538	490.68680	940.11523	-79.49376	432.54211	995.01782	256.53238	127.83738	884.87408	-184.90179	191.06741	756.23199	
455	4.540	77.48415	1384.45422	1059.71350	-17.22485	1531.22998	809.37677	128.60303	1471.68079	874.93518	-56.82511	1419.71692	1001.87482	201.90750	1254.29248	732.24817	-162.63016	1257.46912	953.91986	83.15465	1201.57996	947.92969	-41.79840	1314.01855	743.80243	234.94685	966.45648	663.34479	-233.99007	1003.36328	967.32709	337.12106	758.46313	734.46228	-211.16176	756.87030	1078.07166	213.85257	893.23138	892.23199	-43.71046	873.61871	1007.27454	-44.25269	907.48749	694.23108	238.70427	489.59326	942.25903	-71.12916	435.20752	1013.32990	256.09741	124.13889	884.83282	-168.65445	196.65807	768.34778	
456	4.550	79.90585	1384.90955	1069.77112	-10.94277	1533.56299	818.84100	134.01103	1473.08057	886.47626	-52.89287	1420.35681	1009.92365	209.52803	1256.84326	744.17841	-158.10799	1259.09204	958.61761	86.88244	1202.58875	956.97034	-34.87895	1316.23352	751.02216	246.73657	969.17029	676.53668	-231.90596	1004.76520	971.43396	348.26257	761.00183	751.11505	-212.18404	758.50775	1081.72803	219.59491	895.02686	901.19562	-42.81565	874.97772	1012.68726	-37.71800	909.84381	700.06653	243.65591	487.50732	945.19849	-60.68147	437.04626	1032.43835	255.60919	121.82208	884.15424	-153.20638	201.47276	782.11566	
457	4.560	83.27865	1385.68127	1081.71240	-4.31759	1535.82410	828.48877	139.11629	1474.27429	897.84552	-50.29600	1421.71240	1017.99725	216.47223	1259.20422	755.98877	-155.24339	1260.14734	963.89746	89.50979	1203.54700	966.21790	-27.00362	1318.34753	759.11499	258.46561	971.58270	688.45697	-229.36099	1006.84741	975.35321	359.46082	765.01575	766.72784	-212.19000	760.06323	1085.93225	224.82565	896.04169	910.30121	-41.07160	875.31403	1018.79041	-30.34622	912.25659	706.17615	248.14046	486.69653	948.84149	-51.40762	441.87750	1050.53943	254.93932	120.06884	882.96979	-137.67070	205.29843	796.28522	
458	4.570	85.44652	1385.19275	1090.51172	-0.10584	1538.54358	837.74829	143.52428	1475.55225	908.22845	-46.64196	1422.25195	1025.72192	223.23680	1261.17383	767.59302	-151.98669	1261.99329	969.02869	91.81239	1204.69324	975.36194	-20.39736	1321.52344	765.17987	269.69864	974.48871	701.09344	-227.52646	1008.54504	979.12207	370.41006	768.58221	782.92236	-213.93852	761.65765	1089.45520	229.21597	897.88562	918.66467	-39.31572	876.09143	1025.03198	-22.32058	914.75134	712.28479	252.13913	485.20804	952.59875	-42.55383	448.86395	1068.58252	253.42691	118.85063	881.98639	-121.12968	207.98598	812.25562	
459	4.580	87.01928	1385.32532	1099.59802	6.39417	1541.11902	847.20032	147.74513	1476.64856	919.27002	-43.85044	1423.09705	1033.25903	229.85075	1263.67004	779.22699	-149.72002	1262.93982	973.62982	94.52213	1205.90002	983.87213	-14.37459	1324.05408	773.04132	281.06534	977.21326	713.64581	-225.60869	1010.13904	981.96191	380.72363	771.79370	799.10181	-215.20662	763.05243	1093.22974	233.01193	898.85266	928.22015	-37.62061	876.78375	1031.23877	-15.26874	917.15704	718.41425	255.04037	483.07660	956.26343	-34.20589	455.24698	1083.58459	251.08424	117.46565	880.34229	-105.08619	209.02771	828.96002	
460	4.590	87.98640	1385.53442	1109.03821	11.67371	1542.89233	856.14624	152.14386	1477.86792	930.43347	-41.84011	1424.35522	1041.09424	236.53770	1266.08484	791.49347	-148.64444	1266.43286	980.29834	97.66403	1206.97339	993.03967	-7.14368	1325.15759	782.14124	292.04102	979.97278	727.71094	-223.92926	1011.58069	985.21326	390.55453	775.47534	815.25745	-216.08446	764.80383	1096.66199	237.31523	900.55139	938.26587	-35.84309	877.79919	1037.98340	-7.86935	919.02155	724.38110	256.46838	480.73508	960.39136	-27.00584	462.17844	1098.03784	249.20627	116.96912	878.63025	-89.32311	208.77077	847.71674	
461	4.600	89.12959	1385.55188	1118.15918	16.64193	1545.42480	865.61108	155.98732	1479.36890	940.32025	-40.22871	1425.27161	1048.81750	242.51974	1268.19275	802.79822	-145.71523	1267.64844	984.92499	99.55620	1208.68860	1002.07501	-0.65315	1327.18652	789.51300	302.67490	982.88232	740.02191	-221.21245	1012.54028	987.26599	400.28482	779.63947	831.01434	-216.42534	766.13519	1100.52576	241.63635	902.60663	948.16821	-33.47421	878.64331	1044.44495	-0.59538	921.66211	730.03210	258.19672	478.48608	963.46667	-20.67357	467.84439	1111.11084	246.11200	116.67101	876.64044	-74.08982	207.12274	868.14764	
462	4.610	90.15761	1386.15186	1127.09851	21.56832	1546.97998	874.29742	159.97261	1480.30786	951.55133	-37.72657	1425.78809	1055.90735	248.52524	1270.48303	814.49109	-143.43797	1268.86487	989.58490	101.58559	1209.63159	1010.69244	4.86804	1329.45630	796.22449	313.55157	985.82178	753.34088	-219.84286	1013.97076	989.81793	410.27853	783.80206	847.57306	-217.81352	767.46106	1103.30481	240.91040	902.51019	955.14111	-31.73082	879.86902	1051.04968	7.09303	923.67889	736.01074	259.62527	476.57306	967.37512	-14.11898	474.32599	1124.02905	243.73404	116.70763	875.16278	-59.16428	204.04674	889.59204	
463	4.620	91.23304	1386.76636	1135.89563	26.59613	1548.50513	882.99750	163.45615	1481.55676	962.31842	-35.71980	1426.98083	1063.24524	254.25612	1272.82190	826.06824	-141.25626	1270.01917	993.98865	103.97462	1210.91089	1019.52380	10.83367	1330.76440	803.98883	323.47745	989.15204	767.23993	-219.89755	1015.91309	991.79535	419.10406	787.73871	863.99976	-218.80673	768.91400	1106.32678	243.29027	903.31323	965.18610	-28.81629	880.77026	1057.53076	13.27359	926.04510	742.16779	260.75562	474.63672	970.19336	-9.08287	480.13031	1135.97314	241.57993	116.87947	875.32538	-42.64614	199.92769	909.92444	
